<?xml version="1.0" encoding="UTF-8" standalone="no"?>
<svg
   width="44.017754mm"
   height="25.549303mm"
   viewBox="0 0 44.017754 25.549303"
   version="1.1">
  <path
     d="M 3.9861,3.805106 C 3.139145,3.920305 2.438051,4.375225 1.890397,4.86956 1.342744,5.363894 0.94863695,5.883823 0.73219395,6.381278 0.09985595,7.834596 0.29250595,9.039016 0.67360395,9.976981 1.054698,10.914947 1.517546,11.635592 1.65212,12.654716 1.71769,13.15126 1.55037,13.812494 1.273214,14.486747 0.99605695,15.161 0.63034095,15.819864 0.40211995,16.443778 c -0.577157,1.577844 -0.537086,3.064418 0.146484,4.212891 C 1.232174,21.805142 2.501995,22.524629 4.072042,22.762138 L 4.296651,21.277763 C 1.525031,20.685002 1.019495,18.769497 1.402227,17.156528 1.871235,15.265848 3.01524,13.792154 2.848324,12.319221 2.668772,10.95947 2.234014,10.274376 1.925162,9.514216 1.616311,8.754057 1.29301,7.950284 1.783453,6.823086 2.332417,5.862281 3.084189,5.440135 4.189229,5.291436 Z"
     style="color:#000000;line-height:normal;direction:ltr;dominant-baseline:auto;baseline-shift:baseline;white-space:normal;shape-padding:0;shape-margin:0;inline-size:0;clip-rule:nonzero;display:inline;overflow:visible;visibility:visible;isolation:auto;mix-blend-mode:normal;color-interpolation:sRGB;color-interpolation-filters:linearRGB;solid-color:#000000;solid-opacity:1;vector-effect:none;fill:#20B2AA;fill-opacity:1;fill-rule:nonzero;stroke:none;stroke-width:1.5;stroke-linecap:butt;stroke-linejoin:miter;stroke-miterlimit:4;stroke-dasharray:none;stroke-dashoffset:0;stroke-opacity:1;color-rendering:auto;image-rendering:auto;shape-rendering:auto;enable-background:accumulate;stop-color:#000000" />
  <path
     d="M 24.027945,0.555043 C 17.787538,0.557743 11.538786,1.070824 5.350016,2.18595 L 5.258546,2.24848 4.994478,2.65879 4.975358,2.75233 5.650769,7.3598 5.412541,7.678125 l -0.02739,0.0956 0.465088,5.533511 -0.415995,4.93355 0.02739,0.09353 0.285255,0.380857 0.02894,0.01757 -0.679545,4.62711 0.0217,0.0956 0.265617,0.406178 0.0894,0.06252 c 12.324574,2.22071 24.884152,2.04858 37.150704,0.19327 l 0.09354,-0.0584 0.273368,-0.400492 0.02376,-0.09353 -0.360704,-2.957444 c -0.268507,0.230087 -0.551132,0.443735 -0.846976,0.639239 l 0.238747,1.950783 C 30.148595,24.955771 17.998467,25.108741 6.075021,23.017756 l 0.611333,-4.164087 c 0.06008,0.0057 0.119817,0.01169 0.179317,0.01757 0.732511,0.07221 1.466208,0.140687 2.199348,0.203605 0.320217,0.02765 0.640422,0.05362 0.961182,0.07958 0.265364,0.0213 0.531427,0.04245 0.796851,0.06253 0.568541,0.04346 1.136006,0.08349 1.704806,0.121441 0.06761,0.0045 0.136133,0.011 0.205155,0.01551 2.285786,0.149844 4.574121,0.255588 6.863147,0.314193 0.0026,6.6e-5 0.0052,-6.6e-5 0.0077,0 2.94393,0.123256 5.896709,0.120512 8.84804,0.0041 0.0021,-4.9e-5 0.0037,4.7e-5 0.0057,0 0.0026,-6.4e-5 0.0052,6.3e-5 0.0077,0 h 0.0021 c 0.768125,-0.01871 1.536036,-0.04465 2.303735,-0.0739 -0.249179,-0.303793 -0.477123,-0.625981 -0.68058,-0.964801 -4.230345,0.142256 -8.465089,0.136128 -12.695348,-0.02583 -0.74347,-0.02847 -1.487178,-0.0618 -2.230356,-0.09973 -0.0109,-5.29e-4 -0.0062,-1.85e-4 -0.0041,0 h -0.002 c -1.429292,-0.07301 -2.85928,-0.165198 -4.287068,-0.273373 -0.145263,-0.01103 -0.289346,-0.02159 -0.435633,-0.03307 C 9.894825,18.159114 9.352272,18.114064 8.811343,18.066619 8.634985,18.051109 8.459232,18.036049 8.283684,18.020099 7.648285,17.962409 7.014066,17.900678 6.379407,17.836131 l 0.283187,-3.36517 c 2.847014,-0.293782 5.698928,-0.519205 8.555034,-0.66766 2.205822,-0.114649 4.414573,-0.186115 6.622852,-0.214974 0.736084,-0.0096 1.470874,-0.01538 2.207101,-0.01551 1.365311,-2.06e-4 2.730877,0.01809 4.096389,0.05064 -0.03529,-0.0765 -0.06718,-0.15439 -0.09663,-0.233061 -0.11679,-0.240541 -0.205912,-0.492681 -0.267682,-0.751377 -1.244029,-0.02678 -2.488162,-0.04308 -3.732074,-0.04289 -2.959328,5.29e-4 -5.917582,0.07685 -8.873361,0.230478 -2.803758,0.145735 -5.603876,0.371113 -8.398455,0.656291 L 6.756638,13.262248 6.389218,8.896623 C 12.206722,7.842409 18.10807,7.35657 24.030002,7.3577 c 2.103813,5.3e-4 4.209862,0.06643 6.315379,0.186034 0.147224,-0.218866 0.319294,-0.421797 0.507981,-0.610299 L 30.637354,6.573769 C 28.4352,6.442973 26.231679,6.373665 24.030002,6.373263 18.203493,6.372163 12.393129,6.851412 6.656902,7.863613 L 5.955655,3.103695 C 11.94261,2.053508 17.984767,1.547985 24.025871,1.545135 h 0.0041 c 1.983276,-0.0011 3.965882,0.05586 5.945889,0.158647 C 30.143546,1.351479 30.368526,1.029756 30.636803,0.747768 28.43647,0.623729 26.232799,0.554048 24.027904,0.555014 Z"
     style="color:#000000;line-height:normal;direction:ltr;dominant-baseline:auto;baseline-shift:baseline;white-space:normal;shape-padding:0;shape-margin:0;inline-size:0;clip-rule:nonzero;display:inline;overflow:visible;visibility:visible;isolation:auto;mix-blend-mode:normal;color-interpolation:sRGB;color-interpolation-filters:linearRGB;solid-color:#000000;solid-opacity:1;vector-effect:none;fill:#007777;fill-opacity:1;fill-rule:nonzero;stroke:none;stroke-width:0.277;stroke-linecap:round;stroke-linejoin:bevel;stroke-miterlimit:4;stroke-dasharray:none;stroke-dashoffset:0;stroke-opacity:1;color-rendering:auto;image-rendering:auto;shape-rendering:auto;enable-background:accumulate;stop-color:#000000"
      />
  <path
     style="line-height:1;white-space:pre;inline-size:96.8812;fill:#cc4c1d;fill-opacity:1;stroke:none;stroke-width:0.305763"
     d="M 42.279185,9.027297 V 2.066945 C 42.279185,0.927373 41.351812,0 40.212239,0 39.072665,0 38.145904,0.927373 38.145904,2.066945 V 7.34194 L 35.057409,2.209126 C 34.685908,1.591183 34.007424,1.208063 33.285521,1.208063 c -0.373946,0 -0.742389,0.102428 -1.063744,0.295977 -0.473011,0.284358 -0.807513,0.735967 -0.940522,1.271966 -0.13331,0.535695 -0.04953,1.090957 0.234826,1.564275 l 1.818973,3.022453 c -0.333891,0.01926 -0.65922,0.114663 -0.947859,0.288027 -0.473626,0.284664 -0.807517,0.736274 -0.940523,1.272272 -0.06634,0.266319 -0.07828,0.53814 -0.03945,0.802012 -0.02204,-0.0014 -0.04433,-0.0048 -0.06695,-0.0048 -0.373949,0 -0.741778,0.102732 -1.063744,0.295976 -0.473014,0.284971 -0.806905,0.736275 -0.939911,1.271969 -0.133925,0.536305 -0.05015,1.091566 0.234823,1.564579 l 0.779388,1.295204 c -0.0019,0.01864 -0.0055,0.0364 -0.0055,0.05564 0,3.770035 3.066481,6.836514 6.836518,6.836514 3.769426,0 6.835907,-3.066479 6.835907,-6.836514 V 11.66427 c 2.63e-4,-1.180851 -0.716705,-2.19659 -1.73856,-2.636887 z M 40.212239,1.105938 c 0.530188,0 0.96162,0.430819 0.96162,0.961007 V 8.79553 c -0.0089,0 -0.01741,-0.0014 -0.0263,-0.0014 H 39.251524 V 2.066769 c 0,-0.53019 0.431125,-0.961006 0.960702,-0.961006 z m -7.857763,1.936693 c 0.06207,-0.248891 0.216787,-0.458947 0.43724,-0.591341 0.149823,-0.0902 0.320744,-0.137901 0.493805,-0.137901 0.340924,0 0.649132,0.173979 0.824638,0.465675 l 3.619603,6.014937 h -0.01498 c -0.612134,0 -1.05457,0 -1.423627,0.214952 -0.192321,0.11221 -0.323189,0.262037 -0.415528,0.430512 L 32.463638,3.770343 C 32.331243,3.550195 32.292413,3.291826 32.354476,3.042631 Z m 0.165418,6.147027 c 0.06207,-0.249194 0.217397,-0.459254 0.43724,-0.591649 0.149823,-0.0902 0.320743,-0.137898 0.493805,-0.137898 0.340921,0 0.649131,0.173977 0.824637,0.465675 l 1.561523,2.593773 c 0.273045,0.453749 0.125974,1.045702 -0.328387,1.318749 -0.149212,0.09019 -0.320133,0.137898 -0.493194,0.137898 -0.341535,0 -0.649743,-0.174283 -0.825249,-0.465675 L 32.629357,9.917369 C 32.496655,9.697221 32.457825,9.438851 32.519894,9.189658 Z m -2.110364,2.365674 c 0.06207,-0.248889 0.217397,-0.459253 0.437848,-0.591953 0.148907,-0.08958 0.319828,-0.137287 0.49289,-0.137287 0.340923,0 0.649742,0.173672 0.825251,0.465674 l 1.560909,2.593468 c 0.132091,0.219844 0.170921,0.477904 0.109162,0.726795 -0.06206,0.249501 -0.217395,0.459253 -0.437851,0.591955 -0.149209,0.09081 -0.32013,0.137897 -0.493194,0.137897 0,0 0,0 -5.29e-4,0 -0.340312,0 -0.649129,-0.173673 -0.824638,-0.465675 l -1.560912,-2.593467 c -0.132394,-0.219842 -0.171225,-0.477906 -0.108847,-0.727407 z m 12.503194,2.648505 c 0,3.160349 -2.570842,5.731192 -5.730581,5.731192 -2.490729,0 -4.609658,-1.599742 -5.39791,-3.82385 0.330221,0.213115 0.717928,0.336947 1.120307,0.336947 0,0 0,0 5.29e-4,0 0.373946,0 0.742389,-0.102731 1.064051,-0.296896 0.473011,-0.284356 0.806902,-0.736271 0.939297,-1.271965 0.06634,-0.266319 0.07888,-0.53814 0.04006,-0.801401 0.02201,6.09e-4 0.04433,0.0043 0.06634,0.0043 5.3e-4,0 0,0 5.3e-4,0 0.373943,0 0.741777,-0.102125 1.063741,-0.296284 0.388623,-0.233597 0.670536,-0.576967 0.834729,-0.965589 0.167253,0.116496 0.343371,0.221065 0.53386,0.299647 -0.505727,0.521935 -0.818219,1.2313 -0.818219,2.013744 0,0.30515 0.247362,0.553123 0.552511,0.553123 0.305152,0 0.553122,-0.247973 0.553122,-0.553123 0,-0.990668 0.806294,-1.79696 1.79696,-1.79696 0.30515,0 0.552511,-0.24736 0.552511,-0.55251 0,-0.305148 -0.247361,-0.553124 -0.552511,-0.553124 h -0.992502 c -0.972931,0 -1.764549,-0.79192 -1.764549,-1.76516 0,-0.41553 0.07002,-0.499307 0.07002,-0.499919 0.08349,-0.06666 0.538139,-0.06666 0.871421,-0.06666 H 41.148 c 0.973545,0 1.76516,0.791616 1.76516,1.764856 v 2.539681 z"
      />
</svg>
