<?xml version="1.0" encoding="UTF-8" standalone="no"?>
<svg
   xmlns="http://www.w3.org/2000/svg"
   width="166.29292mm"
   height="25.549297mm"
   viewBox="0 0 166.29292 25.549297"
   version="1.1"
   id="svg2514">
  <path
     id="path872"
     d="M 3.9861041,3.805106 C 3.1391488,3.9203048 2.4380548,4.3752248 1.8904007,4.8695595 1.3427473,5.3638941 0.94864027,5.8838227 0.73219788,6.3812783 0.09986015,7.8345955 0.29250985,9.0390156 0.67360363,9.9769811 1.0546981,10.914947 1.517546,11.635592 1.6521195,12.654716 1.7176875,13.15126 1.5503694,13.812494 1.2732132,14.486747 0.99605709,15.161 0.63034054,15.819864 0.40211949,16.443778 c -0.57715661,1.577844 -0.53708521,3.064418 0.14648441,4.212891 0.6835694,1.148473 1.9533906,1.86796 3.5234379,2.105469 L 4.2966511,21.277763 C 1.5250305,20.685002 1.0194942,18.769497 1.4022269,17.156528 1.8712347,15.265847 3.0152397,13.792154 2.8483238,12.319221 2.6687718,10.95947 2.2340137,10.274376 1.9251617,9.5142165 1.6163109,8.754057 1.2930098,7.9502843 1.7834528,6.8230865 2.3324168,5.8622813 3.0841888,5.4401348 4.1892291,5.2914351 Z"
     style="color:#000000;font-style:normal;font-variant:normal;font-weight:normal;font-stretch:normal;font-size:medium;line-height:normal;font-family:sans-serif;font-variant-ligatures:normal;font-variant-position:normal;font-variant-caps:normal;font-variant-numeric:normal;font-variant-alternates:normal;font-variant-east-asian:normal;font-feature-settings:normal;font-variation-settings:normal;text-indent:0;text-align:start;text-decoration:none;text-decoration-line:none;text-decoration-style:solid;text-decoration-color:#000000;letter-spacing:normal;word-spacing:normal;text-transform:none;writing-mode:lr-tb;direction:ltr;text-orientation:mixed;dominant-baseline:auto;baseline-shift:baseline;text-anchor:start;white-space:normal;shape-padding:0;shape-margin:0;inline-size:0;clip-rule:nonzero;display:inline;overflow:visible;visibility:visible;isolation:auto;mix-blend-mode:normal;color-interpolation:sRGB;color-interpolation-filters:linearRGB;solid-color:#000000;solid-opacity:1;vector-effect:none;fill:#ffffff;fill-opacity:1;fill-rule:nonzero;stroke:none;stroke-width:1.5;stroke-linecap:butt;stroke-linejoin:miter;stroke-miterlimit:4;stroke-dasharray:none;stroke-dashoffset:0;stroke-opacity:1;color-rendering:auto;image-rendering:auto;shape-rendering:auto;text-rendering:auto;enable-background:accumulate;stop-color:#000000" />
  <path
     d="M 24.027949,0.55504269 C 17.787542,0.55776956 11.53879,1.0708238 5.3500195,2.1859503 l -0.091467,0.062524 -0.2640665,0.4103102 -0.019121,0.093536 0.6754109,4.6074704 -0.2382282,0.318325 -0.027388,0.095602 0.465088,5.5335111 -0.4159953,4.93355 0.027388,0.09353 0.2852539,0.380857 0.028939,0.01757 -0.6795453,4.62711 0.021704,0.0956 0.2656168,0.406178 0.0894,0.06252 c 12.3245752,2.220711 24.8841532,2.048584 37.1507032,0.19327 l 0.09354,-0.0584 0.273368,-0.400492 0.02376,-0.09353 -0.360705,-2.957444 c -0.268506,0.230087 -0.551132,0.443735 -0.846976,0.639239 l 0.238747,1.950783 C 30.148601,24.955773 17.998471,25.108736 6.0750249,23.017755 l 0.6113323,-4.164086 c 0.06008,0.0057 0.119817,0.01169 0.1793171,0.01757 0.7325111,0.07221 1.4662081,0.140687 2.1993489,0.203605 0.3202162,0.02765 0.6404218,0.05362 0.9611818,0.07958 0.265364,0.0213 0.531427,0.04245 0.796851,0.06253 0.568541,0.04346 1.136006,0.08349 1.704806,0.121441 0.06761,0.0045 0.136134,0.011 0.205155,0.01551 2.285786,0.149844 4.574121,0.255588 6.863147,0.314192 0.0026,6.6e-5 0.0052,-6.6e-5 0.0077,0 2.94393,0.123257 5.896709,0.120513 8.848039,0.0041 0.0021,-4.9e-5 0.0037,4.7e-5 0.0057,0 0.0026,-6.4e-5 0.0052,6.3e-5 0.0077,0 h 0.0021 c 0.768123,-0.01871 1.536034,-0.04465 2.303735,-0.0739 -0.249179,-0.303793 -0.477125,-0.625981 -0.680579,-0.964801 -4.230347,0.142256 -8.46509,0.136128 -12.69535,-0.02583 -0.743469,-0.02847 -1.487177,-0.0618 -2.230355,-0.09973 -0.0109,-5.29e-4 -0.0062,-1.85e-4 -0.0041,0 h -0.002 c -1.4293,-0.07301 -2.859288,-0.165195 -4.287077,-0.27337 -0.145262,-0.01103 -0.289345,-0.02159 -0.435632,-0.03307 -0.5411724,-0.04235 -1.0837251,-0.0874 -1.6246541,-0.134845 -0.176358,-0.01551 -0.3521113,-0.03057 -0.5276594,-0.04652 -0.6353991,-0.05768 -1.2696175,-0.11942 -1.9042764,-0.183967 l 0.2831867,-3.36517 c 2.847014,-0.293782 5.6989292,-0.519205 8.5550342,-0.66766 2.205822,-0.114649 4.414573,-0.186116 6.622852,-0.214974 0.736084,-0.0096 1.470874,-0.01538 2.207101,-0.01551 1.365311,-2.06e-4 2.730876,0.01809 4.096388,0.05064 -0.03529,-0.0765 -0.06718,-0.15439 -0.09663,-0.233061 -0.116789,-0.240541 -0.205912,-0.492681 -0.267683,-0.751377 -1.244027,-0.02678 -2.48816,-0.04308 -3.732073,-0.04289 -2.959328,5.29e-4 -5.917582,0.07684 -8.873362,0.230478 -2.803757,0.145735 -5.603875,0.371113 -8.3984539,0.656291 L 6.7566916,13.262281 6.3892721,8.8966572 C 12.206776,7.8424428 18.108124,7.3566045 24.030056,7.3577339 c 2.103813,5.296e-4 4.20986,0.06643 6.315376,0.1860341 0.147225,-0.2188656 0.319294,-0.4217983 0.507982,-0.6102988 L 30.637406,6.5738032 C 28.435254,6.4430058 26.231733,6.3736985 24.030056,6.3732965 18.203547,6.3722383 12.393183,6.8514459 6.6569561,7.8636464 L 5.9557068,3.103729 C 11.942662,2.0535424 17.984819,1.5480187 24.025923,1.5451687 h 0.0041 c 1.983276,-0.00106 3.965884,0.055857 5.945891,0.1586475 C 30.143633,1.3515127 30.368613,1.0297897 30.63689,0.7478024 28.436557,0.6237633 26.232885,0.55408213 24.02799,0.55504797 Z"
     style="color:#000000;font-style:normal;font-variant:normal;font-weight:normal;font-stretch:normal;font-size:medium;line-height:normal;font-family:sans-serif;font-variant-ligatures:normal;font-variant-position:normal;font-variant-caps:normal;font-variant-numeric:normal;font-variant-alternates:normal;font-variant-east-asian:normal;font-feature-settings:normal;font-variation-settings:normal;text-indent:0;text-align:start;text-decoration:none;text-decoration-line:none;text-decoration-style:solid;text-decoration-color:#000000;letter-spacing:normal;word-spacing:normal;text-transform:none;writing-mode:lr-tb;direction:ltr;text-orientation:mixed;dominant-baseline:auto;baseline-shift:baseline;text-anchor:start;white-space:normal;shape-padding:0;shape-margin:0;inline-size:0;clip-rule:nonzero;display:inline;overflow:visible;visibility:visible;isolation:auto;mix-blend-mode:normal;color-interpolation:sRGB;color-interpolation-filters:linearRGB;solid-color:#000000;solid-opacity:1;vector-effect:none;fill:#669999;fill-opacity:1;fill-rule:nonzero;stroke:none;stroke-width:0.277001;stroke-linecap:round;stroke-linejoin:bevel;stroke-miterlimit:4;stroke-dasharray:none;stroke-dashoffset:0;stroke-opacity:1;color-rendering:auto;image-rendering:auto;shape-rendering:auto;text-rendering:auto;enable-background:accumulate;stop-color:#000000"
     id="path1578" />
  <path
     style="font-style:normal;font-variant:normal;font-weight:normal;font-stretch:normal;font-size:10.5833px;line-height:1;font-family:Montserrat;letter-spacing:0px;word-spacing:0px;white-space:pre;inline-size:96.8812;fill:#ff6600;fill-opacity:1;stroke:none;stroke-width:0.305762"
     d="M 42.27919,9.0272971 V 2.0669454 C 42.27919,0.92737286 41.351817,0 40.212243,0 39.07267,0 38.145908,0.92737286 38.145908,2.0669454 v 5.2749947 l -3.088495,-5.132814 c -0.3715,-0.6179437 -1.049986,-1.0010634 -1.771888,-1.0010634 -0.373946,0 -0.742388,0.1024282 -1.063743,0.2959769 -0.473013,0.2843588 -0.807515,0.7359678 -0.940522,1.2719664 -0.133312,0.5356951 -0.04953,1.0909569 0.234825,1.5642753 l 1.818974,3.0224516 c -0.333892,0.019264 -0.659222,0.1146631 -0.94786,0.2880268 -0.473625,0.2846649 -0.807517,0.7362748 -0.940522,1.2722725 -0.06634,0.2663192 -0.07828,0.5381396 -0.03945,0.8020126 -0.02203,-0.00141 -0.04433,-0.00484 -0.06695,-0.00484 -0.373948,0 -0.741777,0.1027317 -1.063745,0.2959762 -0.473013,0.284971 -0.806904,0.736274 -0.93991,1.271969 -0.133923,0.536304 -0.05015,1.091566 0.234825,1.564579 l 0.779385,1.295204 c -0.0018,0.01864 -0.0055,0.0364 -0.0055,0.05564 0,3.770035 3.06648,6.836514 6.836518,6.836514 3.769426,0 6.835908,-3.066479 6.835908,-6.836514 v -2.539345 c 2.64e-4,-1.180851 -0.716747,-2.19659 -1.738601,-2.6368869 z M 40.212243,1.1059379 c 0.53019,0 0.96162,0.4308189 0.96162,0.9610075 V 8.79553 c -0.0089,0 -0.01742,-0.00141 -0.02629,-0.00141 H 39.251539 V 2.0667624 c 0,-0.5301904 0.431124,-0.9610066 0.960702,-0.9610066 z m -7.857761,1.9366934 c 0.06207,-0.248891 0.216785,-0.4589478 0.437237,-0.5913417 0.149825,-0.090199 0.320745,-0.1379004 0.493806,-0.1379004 0.340924,0 0.649132,0.1739786 0.824639,0.4656744 l 3.619603,6.0149376 h -0.01498 c -0.612135,0 -1.054571,0 -1.423626,0.2149511 C 36.09884,9.121163 35.967973,9.2709895 35.875633,9.4394642 L 32.463639,3.7703429 C 32.331246,3.5501948 32.292414,3.2918258 32.354479,3.0426313 Z M 32.5199,9.1896575 c 0.06207,-0.2491944 0.217395,-0.4592539 0.437237,-0.5916487 0.149824,-0.090199 0.320745,-0.1378977 0.493805,-0.1378977 0.340923,0 0.649132,0.1739768 0.824638,0.4656744 l 1.561524,2.5937735 c 0.273044,0.453749 0.125974,1.045702 -0.328389,1.318749 -0.149211,0.09019 -0.320131,0.137898 -0.493192,0.137898 -0.341535,0 -0.649743,-0.174283 -0.82525,-0.465675 L 32.629362,9.9173691 C 32.49666,9.6972202 32.45783,9.4388511 32.5199,9.1896575 Z m -2.110365,2.3656745 c 0.06207,-0.248889 0.217395,-0.459253 0.437848,-0.591953 0.148907,-0.08958 0.319828,-0.137287 0.492889,-0.137287 0.340924,0 0.649742,0.173671 0.82525,0.465674 l 1.560911,2.593468 c 0.13209,0.219843 0.170921,0.477904 0.109161,0.726795 -0.06206,0.249501 -0.217395,0.459253 -0.43785,0.591955 -0.14921,0.09081 -0.320131,0.137897 -0.493194,0.137897 0,0 0,0 -6.11e-4,0 -0.340313,0 -0.64913,-0.173673 -0.824638,-0.465675 l -1.560912,-2.593467 c -0.132394,-0.219842 -0.171226,-0.477906 -0.108848,-0.727407 z m 12.503193,2.648505 c 0,3.160349 -2.570842,5.731192 -5.73058,5.731192 -2.490731,0 -4.609658,-1.599743 -5.397912,-3.823851 0.330223,0.213116 0.717929,0.336948 1.12031,0.336948 0,0 0,0 6.12e-4,0 0.373946,0 0.742389,-0.102731 1.06405,-0.296896 0.473013,-0.284356 0.806904,-0.736271 0.939299,-1.271965 0.06634,-0.266319 0.07888,-0.53814 0.04006,-0.801401 0.02202,6.12e-4 0.04433,0.0043 0.06634,0.0043 6.12e-4,0 0,0 6.12e-4,0 0.373945,0 0.741778,-0.102124 1.063743,-0.296283 0.388623,-0.233597 0.670535,-0.576967 0.834729,-0.965588 0.167251,0.116495 0.343369,0.221064 0.533859,0.299646 -0.505728,0.521935 -0.818219,1.2313 -0.818219,2.013744 0,0.30515 0.247362,0.553123 0.552512,0.553123 0.30515,0 0.553123,-0.247973 0.553123,-0.553123 0,-0.990668 0.806293,-1.79696 1.796958,-1.79696 0.30515,0 0.552511,-0.24736 0.552511,-0.55251 0,-0.305148 -0.247361,-0.553123 -0.552511,-0.553123 h -0.992502 c -0.972931,0 -1.764548,-0.791921 -1.764548,-1.765161 0,-0.41553 0.07002,-0.4993068 0.07002,-0.4999191 0.08349,-0.066659 0.538139,-0.066659 0.87142,-0.066659 h 3.43156 c 0.973544,0 1.76516,0.7916161 1.76516,1.7648561 v 2.539681 z"
     id="path959" />
  <g
     transform="matrix(1.225773,0,0,1.225773,-9.2690534,2.1788481)"
     id="g1041">
    <path
       d="M 55.462645,11.547339 55.444023,5.0307297 H 54.205868 L 51.804032,9.0803374 49.364959,5.0307297 h -1.247466 v 6.5166093 h 1.415035 V 7.7211587 l 1.908435,3.1372813 h 0.67959 l 1.917745,-3.2210666 0.0093,3.9099656 z"
       style="font-style:normal;font-variant:normal;font-weight:bold;font-stretch:normal;font-size:10.5833px;line-height:1;font-family:Montserrat;letter-spacing:0px;word-spacing:0px;white-space:pre;inline-size:96.8812;fill:#ffffff;fill-opacity:1;stroke:none;stroke-width:0.232736"
       id="path1067" />
    <path
       d="m 58.925756,6.4643845 c -0.800612,0 -1.610533,0.2141163 -2.15979,0.6051133 l 0.521328,1.0147294 c 0.363069,-0.2885933 0.912326,-0.4654721 1.442964,-0.4654721 0.781993,0 1.154371,0.3630676 1.154371,0.9868001 h -1.154371 c -1.526748,0 -2.150481,0.6144234 -2.150481,1.4988208 0,0.865778 0.698208,1.517439 1.871198,1.517439 0.735445,0 1.256774,-0.242046 1.526748,-0.698209 v 0.623733 h 1.359179 V 8.6893405 c 0,-1.5174392 -0.884397,-2.224956 -2.411146,-2.224956 z m -0.111713,4.1799385 c -0.512019,0 -0.819231,-0.242046 -0.819231,-0.605113 0,-0.3351401 0.214117,-0.586495 0.893707,-0.586495 h 0.99611 v 0.5120189 c -0.16757,0.4561631 -0.586495,0.6795891 -1.070586,0.6795891 z"
       style="font-style:normal;font-variant:normal;font-weight:bold;font-stretch:normal;font-size:10.5833px;line-height:1;font-family:Montserrat;letter-spacing:0px;word-spacing:0px;white-space:pre;inline-size:96.8812;fill:#ffffff;fill-opacity:1;stroke:none;stroke-width:0.232736"
       id="path1069" />
    <path
       d="m 64.33453,11.621815 c 1.49882,0 2.364598,-0.660971 2.364598,-1.591915 0,-1.9736012 -3.025569,-1.1450615 -3.025569,-2.0015297 0,-0.260664 0.279283,-0.465472 0.930944,-0.465472 0.456163,0 0.949564,0.093094 1.442964,0.3723776 L 66.531558,6.9019281 C 66.056777,6.6226449 65.293403,6.4643845 64.604503,6.4643845 c -1.461582,0 -2.31805,0.6702793 -2.31805,1.6198427 0,2.0015298 3.025568,1.1636798 3.025568,1.9829108 0,0.279283 -0.251355,0.456162 -0.921635,0.456162 -0.614422,0 -1.294012,-0.195498 -1.740865,-0.48409 l -0.484091,1.042657 c 0.465472,0.307211 1.32194,0.539948 2.1691,0.539948 z"
       style="font-style:normal;font-variant:normal;font-weight:bold;font-stretch:normal;font-size:10.5833px;line-height:1;font-family:Montserrat;letter-spacing:0px;word-spacing:0px;white-space:pre;inline-size:96.8812;fill:#ffffff;fill-opacity:1;stroke:none;stroke-width:0.232736"
       id="path1071" />
    <path
       d="m 71.325903,11.547339 h 1.759485 L 70.813884,8.661412 72.899199,6.5388597 H 71.167643 L 69.04509,8.5496993 V 4.6397337 h -1.452273 v 6.9076053 h 1.452273 v -1.275394 l 0.698208,-0.688898 z"
       style="font-style:normal;font-variant:normal;font-weight:bold;font-stretch:normal;font-size:10.5833px;line-height:1;font-family:Montserrat;letter-spacing:0px;word-spacing:0px;white-space:pre;inline-size:96.8812;fill:#ffffff;fill-opacity:1;stroke:none;stroke-width:0.232736"
       id="path1073" />
    <path
       d="m 75.254472,11.621815 c 1.49882,0 2.364598,-0.660971 2.364598,-1.591915 0,-1.9736012 -3.025568,-1.1450615 -3.025568,-2.0015297 0,-0.260664 0.279283,-0.465472 0.930943,-0.465472 0.456163,0 0.949564,0.093094 1.442964,0.3723776 L 77.451501,6.9019281 C 76.976718,6.6226449 76.213345,6.4643845 75.524445,6.4643845 c -1.461582,0 -2.31805,0.6702793 -2.31805,1.6198427 0,2.0015298 3.025568,1.1636798 3.025568,1.9829108 0,0.279283 -0.251355,0.456162 -0.921634,0.456162 -0.614423,0 -1.294013,-0.195498 -1.740866,-0.48409 l -0.484091,1.042657 c 0.465472,0.307211 1.321941,0.539948 2.1691,0.539948 z"
       style="font-style:normal;font-variant:normal;font-weight:bold;font-stretch:normal;font-size:10.5833px;line-height:1;font-family:Montserrat;letter-spacing:0px;word-spacing:0px;white-space:pre;inline-size:96.8812;fill:#ffffff;fill-opacity:1;stroke:none;stroke-width:0.232736"
       id="path1075" />
    <path
       d="m 83.130234,5.319323 c 0.260664,0 0.502709,0.093094 0.688898,0.2327356 l 0.269974,-0.6795893 c -0.251355,-0.195498 -0.623732,-0.2885924 -1.005419,-0.2885924 -1.051967,0 -1.629153,0.6330417 -1.629153,1.5919143 v 0.4375436 h -0.83785 V 7.348781 h 0.83785 v 4.198558 h 0.893707 V 7.348781 h 1.415034 V 6.6133348 H 82.329622 V 6.1851012 c 0,-0.5678766 0.269974,-0.8657782 0.800612,-0.8657782 z"
       style="font-style:normal;font-variant:normal;font-weight:500;font-stretch:normal;font-size:10.5833px;line-height:1;font-family:Montserrat;letter-spacing:0px;word-spacing:0px;white-space:pre;inline-size:96.8812;fill:#669999;fill-opacity:1;stroke:none;stroke-width:0.232736"
       id="path1077" />
    <path
       d="m 86.649179,11.603196 c 1.480201,0 2.560094,-1.051967 2.560094,-2.5228586 0,-1.4708924 -1.079893,-2.5135493 -2.560094,-2.5135493 -1.480202,0 -2.569406,1.0426569 -2.569406,2.5135493 0,1.4708916 1.089204,2.5228586 2.569406,2.5228586 z m 0,-0.781993 c -0.949564,0 -1.666391,-0.688899 -1.666391,-1.7408656 0,-1.0519671 0.716827,-1.7315564 1.666391,-1.7315564 0.949561,0 1.657078,0.6795893 1.657078,1.7315564 0,1.0519666 -0.707517,1.7408656 -1.657078,1.7408656 z"
       style="font-style:normal;font-variant:normal;font-weight:500;font-stretch:normal;font-size:10.5833px;line-height:1;font-family:Montserrat;letter-spacing:0px;word-spacing:0px;white-space:pre;inline-size:96.8812;fill:#669999;fill-opacity:1;stroke:none;stroke-width:0.232736"
       id="path1079" />
    <path
       d="M 91.303886,7.4418754 V 6.6133348 h -0.856474 v 4.9340042 h 0.893709 V 9.0896465 c 0,-1.0798954 0.595804,-1.6663903 1.554676,-1.6663903 0.06518,0 0.130336,0 0.204806,0.00931 V 6.5667845 c -0.865772,0 -1.480198,0.2979017 -1.796717,0.8750874 z"
       style="font-style:normal;font-variant:normal;font-weight:500;font-stretch:normal;font-size:10.5833px;line-height:1;font-family:Montserrat;letter-spacing:0px;word-spacing:0px;white-space:pre;inline-size:96.8812;fill:#669999;fill-opacity:1;stroke:none;stroke-width:0.232736"
       id="path1081" />
    <g
       id="g917"
       transform="translate(47.620653,-9.2986721)">
      <path
         id="path1083"
         style="font-style:normal;font-variant:normal;font-weight:bold;font-stretch:normal;font-size:10.5833px;line-height:1;font-family:Montserrat;letter-spacing:0px;word-spacing:0px;white-space:pre;inline-size:96.8812;fill:#ff6600;fill-opacity:1;stroke:none;stroke-width:0.232736"
         d="m 52.586027,14.340171 v 2.569406 h -2.960402 v -2.569406 h -1.50813 v 6.51661 h 1.50813 v -2.67181 h 2.960402 v 2.67181 h 1.50813 v -6.51661 z" />
      <path
         id="path1085"
         style="font-style:normal;font-variant:normal;font-weight:bold;font-stretch:normal;font-size:10.5833px;line-height:1;font-family:Montserrat;letter-spacing:0px;word-spacing:0px;white-space:pre;inline-size:96.8812;fill:#ff6600;fill-opacity:1;stroke:none;stroke-width:0.232736"
         d="m 59.130552,15.848301 v 2.476311 c 0,0.921635 -0.48409,1.349869 -1.154371,1.349869 -0.642351,0 -1.014729,-0.372378 -1.014729,-1.210227 V 15.848301 H 55.50918 v 2.83007 c 0,1.545367 0.884396,2.252885 2.141171,2.252885 0.614423,0 1.172989,-0.232737 1.554677,-0.67028 v 0.595805 h 1.377797 v -5.00848 z" />
      <path
         id="path1087"
         style="font-style:normal;font-variant:normal;font-weight:bold;font-stretch:normal;font-size:10.5833px;line-height:1;font-family:Montserrat;letter-spacing:0px;word-spacing:0px;white-space:pre;inline-size:96.8812;fill:#ff6600;fill-opacity:1;stroke:none;stroke-width:0.232736"
         d="m 68.346884,15.773825 c -0.754065,0 -1.405726,0.307212 -1.806032,0.819231 -0.353758,-0.549257 -0.949563,-0.819231 -1.647771,-0.819231 -0.642352,0 -1.200918,0.223427 -1.573296,0.651661 v -0.577185 h -1.387106 v 5.00848 h 1.452272 v -2.51355 c 0,-0.893706 0.456163,-1.312631 1.098515,-1.312631 0.605113,0 0.949562,0.372377 0.949562,1.182299 v 2.643882 h 1.452273 v -2.51355 c 0,-0.893706 0.456163,-1.312631 1.107824,-1.312631 0.586495,0 0.949563,0.372377 0.949563,1.182299 v 2.643882 h 1.452273 v -2.867309 c 0,-1.526748 -0.856469,-2.215647 -2.048077,-2.215647 z" />
      <path
         id="path1089"
         style="font-style:normal;font-variant:normal;font-weight:bold;font-stretch:normal;font-size:10.5833px;line-height:1;font-family:Montserrat;letter-spacing:0px;word-spacing:0px;white-space:pre;inline-size:96.8812;fill:#ff6600;fill-opacity:1;stroke:none;stroke-width:0.232736"
         d="m 73.71843,15.773825 c -0.800613,0 -1.610534,0.214118 -2.159791,0.605114 l 0.521329,1.014729 c 0.363068,-0.288592 0.912325,-0.465472 1.442963,-0.465472 0.781994,0 1.154371,0.363068 1.154371,0.986801 h -1.154371 c -1.526749,0 -2.150481,0.614423 -2.150481,1.49882 0,0.865778 0.698209,1.517439 1.871198,1.517439 0.735446,0 1.256775,-0.242046 1.526749,-0.698209 v 0.623734 h 1.359177 v -2.857999 c 0,-1.517439 -0.884396,-2.224957 -2.411144,-2.224957 z m -0.111714,4.179939 c -0.512019,0 -0.819231,-0.242045 -0.819231,-0.605113 0,-0.33514 0.214118,-0.586495 0.893707,-0.586495 h 0.99611 v 0.51202 c -0.16757,0.456162 -0.586495,0.679588 -1.070586,0.679588 z" />
      <path
         id="path1091"
         style="font-style:normal;font-variant:normal;font-weight:bold;font-stretch:normal;font-size:10.5833px;line-height:1;font-family:Montserrat;letter-spacing:0px;word-spacing:0px;white-space:pre;inline-size:96.8812;fill:#ff6600;fill-opacity:1;stroke:none;stroke-width:0.232736"
         d="m 80.486381,15.773825 c -0.679589,0 -1.266084,0.232736 -1.65708,0.66097 v -0.586494 h -1.387107 v 5.00848 h 1.452273 v -2.476312 c 0,-0.921635 0.50271,-1.349869 1.200918,-1.349869 0.642351,0 1.014729,0.372377 1.014729,1.182299 v 2.643882 h 1.452273 v -2.867309 c 0,-1.526748 -0.893707,-2.215647 -2.076006,-2.215647 z" />
      <path
         id="path1093"
         style="font-style:normal;font-variant:normal;font-weight:bold;font-stretch:normal;font-size:10.5833px;line-height:1;font-family:Montserrat;letter-spacing:0px;word-spacing:0px;white-space:pre;inline-size:96.8812;fill:#ff6600;fill-opacity:1;stroke:none;stroke-width:0.232736"
         d="m 84.601155,15.150093 c 0.539948,0 0.903016,-0.353759 0.903016,-0.83785 0,-0.446853 -0.363068,-0.781993 -0.903016,-0.781993 -0.539947,0 -0.903016,0.353759 -0.903016,0.809921 0,0.456163 0.363069,0.809922 0.903016,0.809922 z m -0.726136,5.706688 h 1.452273 v -5.00848 h -1.452273 z" />
      <path
         id="path1095"
         style="font-style:normal;font-variant:normal;font-weight:bold;font-stretch:normal;font-size:10.5833px;line-height:1;font-family:Montserrat;letter-spacing:0px;word-spacing:0px;white-space:pre;inline-size:96.8812;fill:#ff6600;fill-opacity:1;stroke:none;stroke-width:0.232736"
         d="m 89.516529,19.590697 c -0.158263,0.121022 -0.372375,0.186188 -0.586496,0.186188 -0.390998,0 -0.623732,-0.232736 -0.623732,-0.66097 v -2.038768 h 1.247463 v -1.117133 h -1.247463 v -1.219536 h -1.452274 v 1.219536 h -0.772684 v 1.117133 h 0.772684 v 2.057387 c 0,1.191608 0.6889,1.796722 1.8712,1.796722 0.446855,0 0.884394,-0.102404 1.1823,-0.316521 z" />
      <path
         id="path1097"
         style="font-style:normal;font-variant:normal;font-weight:bold;font-stretch:normal;font-size:10.5833px;line-height:1;font-family:Montserrat;letter-spacing:0px;word-spacing:0px;white-space:pre;inline-size:96.8812;fill:#ff6600;fill-opacity:1;stroke:none;stroke-width:0.232736"
         d="m 94.208477,15.848301 -1.415034,3.397946 -1.405727,-3.397946 h -1.498819 l 2.169101,5.045717 -0.01865,0.04655 c -0.195499,0.446853 -0.418917,0.623732 -0.81923,0.623732 -0.288591,0 -0.595803,-0.121023 -0.819231,-0.316521 l -0.53064,1.033348 c 0.325835,0.288593 0.884403,0.456163 1.396421,0.456163 0.903016,0 1.591911,-0.363068 2.076009,-1.573296 l 2.262193,-5.315691 z" />
    </g>
  </g>
</svg>
