<?xml version="1.0" encoding="UTF-8" standalone="no"?>
<svg
   xmlns="http://www.w3.org/2000/svg"
   id="svg2514"
   version="1.1"
   viewBox="0 0 95.604874 25.549303"
   height="25.549303mm"
   width="95.604874mm">
  <g
     transform="translate(131.43207,-148.09771)"
     id="layer1">
    <g
       transform="matrix(0.87963507,0,0,0.87963507,-131.71293,85.47959)"
       id="g1186"
       style="font-style:normal;font-variant:normal;font-weight:normal;font-stretch:normal;font-size:10.5833px;line-height:1;font-family:Montserrat;letter-spacing:0px;word-spacing:0px;white-space:pre;inline-size:96.8812;fill:currentColor;fill-opacity:1;stroke:none;stroke-width:0.264583">
      <path
         style="color:currentColor;font-style:normal;font-variant:normal;font-weight:normal;font-stretch:normal;font-size:medium;line-height:normal;font-family:sans-serif;font-variant-ligatures:normal;font-variant-position:normal;font-variant-caps:normal;font-variant-numeric:normal;font-variant-alternates:normal;font-variant-east-asian:normal;font-feature-settings:normal;font-variation-settings:normal;text-indent:0;text-align:start;text-decoration:none;text-decoration-line:none;text-decoration-style:solid;text-decoration-color:currentColor;letter-spacing:normal;word-spacing:normal;text-transform:none;writing-mode:lr-tb;direction:ltr;text-orientation:mixed;dominant-baseline:auto;baseline-shift:baseline;text-anchor:start;white-space:normal;shape-padding:0;shape-margin:0;inline-size:0;clip-rule:nonzero;display:inline;overflow:visible;visibility:visible;isolation:auto;mix-blend-mode:normal;color-interpolation:sRGB;color-interpolation-filters:linearRGB;solid-color:currentColor;solid-opacity:1;vector-effect:none;fill:currentColor;fill-opacity:1;fill-rule:nonzero;stroke:none;stroke-width:1.70525;stroke-linecap:butt;stroke-linejoin:miter;stroke-miterlimit:4;stroke-dasharray:none;stroke-dashoffset:0;stroke-opacity:1;color-rendering:auto;image-rendering:auto;shape-rendering:auto;text-rendering:auto;enable-background:accumulate;stop-color:currentColor"
         d="m 4.8508347,75.512254 c -0.9628485,0.130962 -1.7598768,0.648131 -2.3824691,1.210108 -0.6225916,0.561977 -1.0706264,1.15305 -1.3166857,1.718575 -0.71886371,1.652182 -0.49985277,3.021409 -0.066612,4.087721 0.4332416,1.066313 0.9594234,1.885567 1.1124112,3.044143 0.07454,0.564489 -0.1156731,1.316203 -0.4307539,2.082717 -0.3150809,0.766515 -0.7308403,1.515534 -0.99028999,2.224822 -0.65613188,1.793748 -0.6105773,3.483738 0.16652861,4.789362 0.77710578,1.305624 2.22068298,2.123562 4.00556788,2.393571 L 5.2038754,95.375784 C 2.0529999,94.701912 1.4782885,92.524299 1.9133924,90.690619 2.446577,88.541227 3.747122,86.865881 3.5573661,85.191399 3.3532451,83.645586 2.8589969,82.866747 2.5078831,82.002571 2.1567706,81.138395 1.7892306,80.224638 2.3467834,78.9432 2.9708649,77.850923 3.8255057,77.371012 5.0817543,77.201965 Z"
         id="path872" />
      <path
         id="path1578"
         style="color:currentColor;font-style:normal;font-variant:normal;font-weight:normal;font-stretch:normal;font-size:medium;line-height:normal;font-family:sans-serif;font-variant-ligatures:normal;font-variant-position:normal;font-variant-caps:normal;font-variant-numeric:normal;font-variant-alternates:normal;font-variant-east-asian:normal;font-feature-settings:normal;font-variation-settings:normal;text-indent:0;text-align:start;text-decoration:none;text-decoration-line:none;text-decoration-style:solid;text-decoration-color:currentColor;letter-spacing:normal;word-spacing:normal;text-transform:none;writing-mode:lr-tb;direction:ltr;text-orientation:mixed;dominant-baseline:auto;baseline-shift:baseline;text-anchor:start;white-space:normal;shape-padding:0;shape-margin:0;inline-size:0;clip-rule:nonzero;display:inline;overflow:visible;visibility:visible;isolation:auto;mix-blend-mode:normal;color-interpolation:sRGB;color-interpolation-filters:linearRGB;solid-color:currentColor;solid-opacity:1;vector-effect:none;fill:currentColor;fill-opacity:1;fill-rule:nonzero;stroke:none;stroke-width:0.314904;stroke-linecap:round;stroke-linejoin:bevel;stroke-miterlimit:4;stroke-dasharray:none;stroke-dashoffset:0;stroke-opacity:1;color-rendering:auto;image-rendering:auto;shape-rendering:auto;text-rendering:auto;enable-background:accumulate;stop-color:currentColor"
         d="m 27.635107,71.817468 c -7.094314,0.0031 -14.198114,0.586358 -21.2337255,1.854073 l -0.1039832,0.07108 -0.3002001,0.466455 -0.021738,0.106335 0.7678308,5.237934 -0.2708261,0.361883 -0.031136,0.108684 0.5287284,6.29069 -0.4729181,5.608633 0.031136,0.106332 0.3242866,0.432972 0.032899,0.01997 -0.7725309,5.260261 0.024674,0.108681 0.3019625,0.461757 0.1016331,0.07108 c 14.0110085,2.524582 28.2891785,2.328902 42.2342225,0.219716 l 0.106334,-0.06639 0.310774,-0.455293 0.02701,-0.106331 -0.410061,-3.362126 c -0.305248,0.261571 -0.626547,0.504454 -0.962872,0.726709 l 0.271415,2.217719 C 34.593278,99.557074 20.780585,99.730968 7.2255931,97.353868 l 0.694984,-4.73388 c 0.068301,0.0065 0.1362122,0.01329 0.203854,0.01997 0.8327443,0.08209 1.6668368,0.159938 2.5002969,0.231465 0.364033,0.03144 0.728054,0.06096 1.092705,0.09047 0.301675,0.02421 0.604145,0.04826 0.905888,0.07109 0.646337,0.04941 1.291452,0.09491 1.938083,0.138059 0.07686,0.0051 0.154762,0.01251 0.233228,0.01763 2.598562,0.170348 5.200021,0.290561 7.802266,0.357185 0.0029,7.5e-5 0.0059,-7.5e-5 0.0088,0 3.346763,0.140122 6.703586,0.137003 10.058761,0.0047 0.0024,-5.5e-5 0.0042,5.4e-5 0.0065,0 0.003,-7.3e-5 0.0059,7.2e-5 0.0088,0 h 0.0024 c 0.873229,-0.02127 1.746217,-0.05076 2.618967,-0.08401 -0.283276,-0.345362 -0.542413,-0.711637 -0.773707,-1.096819 -4.809206,0.161721 -9.623411,0.154755 -14.432519,-0.02936 -0.845201,-0.03237 -1.690675,-0.07026 -2.535545,-0.113382 -0.01239,-6.02e-4 -0.0071,-2.11e-4 -0.0047,0 h -0.0023 c -1.624878,-0.083 -3.250539,-0.1878 -4.873699,-0.310777 -0.165139,-0.01254 -0.328938,-0.02454 -0.495242,-0.0376 -0.615284,-0.04818 -1.232077,-0.09939 -1.847024,-0.15333 C 10.1359,91.707645 9.9360975,91.69053 9.7365282,91.672396 9.0141843,91.606818 8.2931825,91.536635 7.57168,91.463255 l 0.3219366,-3.825643 c 3.2365854,-0.333982 6.4787424,-0.59025 9.7256624,-0.759019 2.507656,-0.130337 5.018642,-0.211583 7.529091,-0.24439 0.836806,-0.01092 1.672141,-0.01748 2.50911,-0.01763 1.552133,-2.35e-4 3.104555,0.02057 4.656917,0.05757 -0.04012,-0.08697 -0.07637,-0.175516 -0.109854,-0.264952 -0.13277,-0.273455 -0.234088,-0.560097 -0.304312,-0.854192 -1.414253,-0.03044 -2.828628,-0.04897 -4.242751,-0.04876 -3.364268,6.02e-4 -6.727315,0.08736 -10.087549,0.262016 -3.18741,0.165677 -6.370682,0.421894 -9.5476573,0.746095 L 8.0005357,86.263503 7.5828404,81.300508 C 14.196383,80.10204 20.905242,79.549722 27.637502,79.551006 c 2.391688,6.02e-4 4.785916,0.07552 7.179541,0.21149 0.167371,-0.248814 0.362985,-0.479515 0.577492,-0.693809 L 35.148969,78.659806 C 32.645486,78.511111 30.140446,78.43232 27.637502,78.431863 21.013722,78.43066 14.408297,78.97544 7.8871529,80.126145 L 7.0899481,74.714904 C 13.896129,73.521015 20.765065,72.946318 27.632803,72.943078 h 0.0047 c 2.254658,-0.0012 4.508556,0.0635 6.759497,0.180356 0.190631,-0.400511 0.446396,-0.766257 0.751383,-1.08683 -2.501416,-0.141012 -5.006628,-0.220228 -7.51323,-0.21913 z" />
      <path
         id="path959"
         d="m 48.383758,81.449024 v -7.912772 c 0,-1.295506 -1.05427,-2.349776 -2.349778,-2.349776 -1.295507,0 -2.349082,1.05427 -2.349082,2.349776 v 5.996799 l -3.51111,-5.835163 c -0.422334,-0.7025 -1.193661,-1.138044 -2.014344,-1.138044 -0.425115,0 -0.843973,0.116444 -1.209301,0.336477 -0.537737,0.323269 -0.918011,0.836674 -1.069218,1.446016 -0.151554,0.608997 -0.05631,1.240238 0.266957,1.778323 l 2.067874,3.436029 c -0.37958,0.0219 -0.749427,0.130353 -1.077561,0.327439 -0.538433,0.323617 -0.918013,0.837023 -1.069218,1.446364 -0.07542,0.302761 -0.08899,0.611776 -0.04485,0.911756 -0.02504,-0.0016 -0.0504,-0.0055 -0.07611,-0.0055 -0.425118,0 -0.843279,0.116789 -1.209303,0.336476 -0.537738,0.323965 -0.917317,0.837023 -1.068523,1.446019 -0.152248,0.60969 -0.05701,1.240931 0.266957,1.778669 l 0.886033,1.472433 c -0.002,0.02119 -0.0063,0.04138 -0.0063,0.06325 0,4.285908 3.486083,7.771989 7.771994,7.771989 4.285216,0 7.7713,-3.486081 7.7713,-7.771989 V 84.44678 C 50.360523,83.104347 49.5454,81.949619 48.38372,81.449074 Z M 46.03398,72.443745 c 0.602738,0 1.093203,0.48977 1.093203,1.092507 v 7.649291 c -0.01012,0 -0.0198,-0.0016 -0.02989,-0.0016 h -2.155475 v -7.647899 c 0,-0.602739 0.490117,-1.092506 1.092159,-1.092506 z m -8.932979,2.201701 c 0.07056,-0.282948 0.246449,-0.521748 0.497067,-0.672258 0.170326,-0.102542 0.364634,-0.15677 0.561376,-0.15677 0.387574,0 0.737956,0.197785 0.937478,0.529395 l 4.114892,6.837992 h -0.01703 c -0.695896,0 -1.198873,0 -1.618428,0.244364 -0.218637,0.127565 -0.367411,0.297893 -0.472387,0.489421 L 37.225095,75.472734 C 37.074586,75.222462 37.03044,74.928739 37.100998,74.645446 Z m 0.188053,6.988155 c 0.07056,-0.283293 0.247143,-0.522096 0.497067,-0.672607 0.170325,-0.102542 0.364634,-0.156767 0.561375,-0.156767 0.387573,0 0.737956,0.197783 0.937477,0.529395 l 1.775195,2.948693 c 0.310406,0.515838 0.143212,1.188791 -0.373324,1.4992 -0.169628,0.102531 -0.363936,0.156767 -0.560678,0.156767 -0.388269,0 -0.73865,-0.198131 -0.938173,-0.529395 l -1.774498,-2.947998 c -0.150861,-0.250273 -0.195004,-0.543996 -0.124441,-0.827288 z m -2.399137,2.689382 c 0.07056,-0.282946 0.247143,-0.522095 0.497762,-0.672953 0.169282,-0.101838 0.363591,-0.156073 0.560333,-0.156073 0.387574,0 0.73865,0.197436 0.938173,0.529395 l 1.774498,2.948345 c 0.150165,0.249926 0.194309,0.543298 0.124098,0.826246 -0.07055,0.283642 -0.247142,0.522095 -0.497763,0.672955 -0.169627,0.103236 -0.363936,0.156767 -0.56068,0.156767 0,0 0,0 -6.95e-4,0 -0.386879,0 -0.737953,-0.197438 -0.937477,-0.529396 l -1.7745,-2.948344 c -0.15051,-0.249924 -0.194655,-0.543301 -0.123742,-0.826942 z m 14.214069,3.010913 c 0,3.592796 -2.922623,6.51542 -6.514724,6.51542 -2.831551,0 -5.240421,-1.818643 -6.136536,-4.347087 0.375409,0.242277 0.816167,0.383054 1.273607,0.383054 0,0 0,0 6.96e-4,0 0.425115,0 0.843974,-0.116789 1.20965,-0.337522 0.537737,-0.323266 0.917316,-0.837019 1.067828,-1.446015 0.07542,-0.30276 0.08967,-0.611776 0.04554,-0.91106 0.02503,6.95e-4 0.0504,0.0049 0.07542,0.0049 6.96e-4,0 0,0 6.96e-4,0 0.425113,0 0.843279,-0.116099 1.2093,-0.336825 0.4418,-0.265562 0.762288,-0.655917 0.948949,-1.097715 0.190137,0.132436 0.390354,0.251314 0.60691,0.340648 -0.574929,0.593354 -0.93018,1.399785 -0.93018,2.289295 0,0.346905 0.28121,0.62881 0.628115,0.62881 0.346905,0 0.628809,-0.281905 0.628809,-0.62881 0,-1.126226 0.916623,-2.042847 2.042845,-2.042847 0.346906,0 0.628114,-0.281208 0.628114,-0.628113 0,-0.346903 -0.281208,-0.628809 -0.628114,-0.628809 H 44.1326 c -1.106062,0 -2.006,-0.900284 -2.006,-2.006697 0,-0.472389 0.0796,-0.56763 0.0796,-0.568326 0.09492,-0.07578 0.611776,-0.07578 0.990661,-0.07578 h 3.901118 c 1.106759,0 2.006696,0.899937 2.006696,2.00635 v 2.887199 z"
         style="fill:currentColor;stroke-width:0.347601" />
      <g
         id="g1116"
         transform="translate(-0.24027806)">
        <path
           id="path1067"
           style="font-style:normal;font-variant:normal;font-weight:bold;font-stretch:normal;font-family:Montserrat;fill:currentColor"
           d="m 63.61145,84.313896 -0.02117,-7.40831 h -1.407579 l -2.730491,4.603736 -2.772824,-4.603736 h -1.418163 v 7.40831 h 1.608662 V 79.96416 l 2.169576,3.566572 h 0.772581 l 2.18016,-3.661822 0.01058,4.444986 z" />
        <path
           id="path1069"
           style="font-style:normal;font-variant:normal;font-weight:bold;font-stretch:normal;font-family:Montserrat;fill:currentColor"
           d="m 67.548436,78.535415 c -0.910164,0 -1.830911,0.243415 -2.455325,0.687914 l 0.592664,1.15358 c 0.412749,-0.328083 1.037164,-0.529165 1.640412,-0.529165 0.888997,0 1.312329,0.412748 1.312329,1.121829 h -1.312329 c -1.735661,0 -2.444742,0.698498 -2.444742,1.703912 0,0.984247 0.793747,1.725078 2.127243,1.725078 0.83608,0 1.428745,-0.275166 1.735661,-0.793748 v 0.709081 h 1.545162 v -3.249073 c 0,-1.725078 -1.005414,-2.529408 -2.741075,-2.529408 z m -0.127,4.751901 c -0.582081,0 -0.93133,-0.275166 -0.93133,-0.687914 0,-0.380999 0.243416,-0.666748 1.015997,-0.666748 h 1.132413 v 0.582081 c -0.190499,0.518582 -0.666748,0.772581 -1.21708,0.772581 z" />
        <path
           id="path1071"
           style="font-style:normal;font-variant:normal;font-weight:bold;font-stretch:normal;font-family:Montserrat;fill:currentColor"
           d="m 73.69732,84.398563 c 1.703911,0 2.688158,-0.751415 2.688158,-1.809745 0,-2.243659 -3.439573,-1.301746 -3.439573,-2.275409 0,-0.296332 0.317499,-0.529165 1.05833,-0.529165 0.518582,0 1.079497,0.105833 1.640412,0.423332 L 76.194978,79.03283 C 75.65523,78.715331 74.7874,78.535415 74.004235,78.535415 c -1.661578,0 -2.635241,0.761997 -2.635241,1.841494 0,2.275409 3.439572,1.322912 3.439572,2.254243 0,0.317499 -0.285749,0.518581 -1.047747,0.518581 -0.698497,0 -1.471078,-0.222249 -1.979077,-0.550331 l -0.550331,1.185329 c 0.529165,0.349249 1.502828,0.613832 2.465909,0.613832 z" />
        <path
           id="path1073"
           style="font-style:normal;font-variant:normal;font-weight:bold;font-stretch:normal;font-family:Montserrat;fill:currentColor"
           d="m 81.645358,84.313896 h 2.000244 l -2.582325,-3.280823 2.370659,-2.412992 h -1.968494 l -2.412992,2.285993 v -4.444986 h -1.650995 v 7.852808 h 1.650995 v -1.449912 l 0.793747,-0.783164 z" />
        <path
           id="path1075"
           style="font-style:normal;font-variant:normal;font-weight:bold;font-stretch:normal;font-family:Montserrat;fill:currentColor"
           d="m 86.111493,84.398563 c 1.703911,0 2.688158,-0.751415 2.688158,-1.809745 0,-2.243659 -3.439572,-1.301746 -3.439572,-2.275409 0,-0.296332 0.317499,-0.529165 1.058329,-0.529165 0.518582,0 1.079497,0.105833 1.640412,0.423332 l 0.550332,-1.174746 c -0.539749,-0.317499 -1.407579,-0.497415 -2.190744,-0.497415 -1.661578,0 -2.635241,0.761997 -2.635241,1.841494 0,2.275409 3.439572,1.322912 3.439572,2.254243 0,0.317499 -0.285749,0.518581 -1.047746,0.518581 -0.698498,0 -1.471079,-0.222249 -1.979077,-0.550331 l -0.550332,1.185329 c 0.529165,0.349249 1.502829,0.613832 2.465909,0.613832 z" />
        <path
           id="path1077"
           style="font-style:normal;font-variant:normal;font-weight:500;font-stretch:normal;font-family:Montserrat"
           d="m 95.064935,77.233669 c 0.296332,0 0.571498,0.105833 0.783164,0.264582 l 0.306916,-0.772581 c -0.285749,-0.222249 -0.709081,-0.328082 -1.142996,-0.328082 -1.195913,0 -1.852078,0.719664 -1.852078,1.809744 v 0.497415 h -0.952497 v 0.836081 h 0.952497 v 4.773068 h 1.015997 v -4.773068 h 1.608661 v -0.836081 h -1.629828 v -0.486831 c 0,-0.645582 0.306916,-0.984247 0.910164,-0.984247 z" />
        <path
           id="path1079"
           style="font-style:normal;font-variant:normal;font-weight:500;font-stretch:normal;font-family:Montserrat"
           d="m 99.065395,84.377396 c 1.682745,0 2.910405,-1.195913 2.910405,-2.868074 0,-1.672162 -1.22766,-2.857491 -2.910405,-2.857491 -1.682745,0 -2.920991,1.185329 -2.920991,2.857491 0,1.672161 1.238246,2.868074 2.920991,2.868074 z m 0,-0.888997 c -1.079497,0 -1.894411,-0.783164 -1.894411,-1.979077 0,-1.195913 0.814914,-1.968494 1.894411,-1.968494 1.079495,0 1.883825,0.772581 1.883825,1.968494 0,1.195913 -0.80433,1.979077 -1.883825,1.979077 z" />
        <path
           id="path1081"
           style="font-style:normal;font-variant:normal;font-weight:500;font-stretch:normal;font-family:Montserrat"
           d="m 104.35703,79.646661 v -0.941914 h -0.97367 v 5.609149 h 1.016 v -2.793991 c 0,-1.227663 0.67733,-1.894411 1.76741,-1.894411 0.0741,0 0.14817,0 0.23283,0.01058 v -0.984247 c -0.98424,0 -1.68274,0.338665 -2.04257,0.99483 z" />
        <path
           id="path1083"
           style="font-style:normal;font-variant:normal;font-weight:bold;font-stretch:normal;font-family:Montserrat;fill:currentColor;fill-opacity:1;stroke-width:0.264583"
           d="m 60.34121,87.488885 v 2.92099 h -3.365489 v -2.92099 h -1.714495 v 7.40831 h 1.714495 v -3.037407 h 3.365489 v 3.037407 h 1.714495 v -7.40831 z" />
        <path
           id="path1085"
           style="font-style:normal;font-variant:normal;font-weight:bold;font-stretch:normal;font-family:Montserrat;fill:currentColor;fill-opacity:1;stroke-width:0.264583"
           d="m 67.781255,89.203379 v 2.815158 c 0,1.047747 -0.550331,1.534578 -1.312329,1.534578 -0.730248,0 -1.15358,-0.423332 -1.15358,-1.375828 v -2.973908 h -1.650994 v 3.217323 c 0,1.756828 1.005413,2.561159 2.434159,2.561159 0.698497,0 1.333495,-0.264583 1.767411,-0.761998 v 0.677332 h 1.566328 v -5.693816 z" />
        <path
           id="path1087"
           style="font-style:normal;font-variant:normal;font-weight:bold;font-stretch:normal;font-family:Montserrat;fill:currentColor;fill-opacity:1;stroke-width:0.264583"
           d="m 78.258704,89.118713 c -0.857247,0 -1.598078,0.349249 -2.05316,0.93133 -0.402165,-0.624414 -1.079497,-0.93133 -1.873244,-0.93133 -0.730248,0 -1.365246,0.253999 -1.788578,0.740831 v -0.656165 h -1.576911 v 5.693816 h 1.650994 v -2.857491 c 0,-1.015997 0.518582,-1.492246 1.24883,-1.492246 0.687914,0 1.079496,0.423332 1.079496,1.344079 v 3.005658 h 1.650995 v -2.857491 c 0,-1.015997 0.518582,-1.492246 1.259413,-1.492246 0.666748,0 1.079496,0.423332 1.079496,1.344079 v 3.005658 h 1.650995 v -3.259657 c 0,-1.735661 -0.973664,-2.518825 -2.328326,-2.518825 z" />
        <path
           id="path1089"
           style="font-style:normal;font-variant:normal;font-weight:bold;font-stretch:normal;font-family:Montserrat;fill:currentColor;fill-opacity:1;stroke-width:0.264583"
           d="m 84.365266,89.118713 c -0.910164,0 -1.830911,0.243416 -2.455326,0.687914 l 0.592665,1.15358 c 0.412749,-0.328082 1.037163,-0.529165 1.640411,-0.529165 0.888998,0 1.31233,0.412749 1.31233,1.12183 h -1.31233 c -1.735661,0 -2.444742,0.698498 -2.444742,1.703911 0,0.984247 0.793748,1.725078 2.127243,1.725078 0.836081,0 1.428746,-0.275166 1.735662,-0.793748 v 0.709082 h 1.545161 v -3.249073 c 0,-1.725078 -1.005413,-2.529409 -2.741074,-2.529409 z m -0.127,4.751901 c -0.582081,0 -0.93133,-0.275165 -0.93133,-0.687914 0,-0.380999 0.243416,-0.666748 1.015997,-0.666748 h 1.132413 v 0.582082 c -0.1905,0.518581 -0.666748,0.77258 -1.21708,0.77258 z" />
        <path
           id="path1091"
           style="font-style:normal;font-variant:normal;font-weight:bold;font-stretch:normal;font-family:Montserrat;fill:currentColor;fill-opacity:1;stroke-width:0.264583"
           d="m 92.059311,89.118713 c -0.772581,0 -1.439329,0.264582 -1.883827,0.751414 v -0.666748 h -1.576912 v 5.693816 h 1.650995 v -2.815158 c 0,-1.047747 0.571498,-1.534579 1.365246,-1.534579 0.730247,0 1.153579,0.423332 1.153579,1.344079 v 3.005658 h 1.650995 v -3.259657 c 0,-1.735661 -1.015997,-2.518825 -2.360076,-2.518825 z" />
        <path
           id="path1093"
           style="font-style:normal;font-variant:normal;font-weight:bold;font-stretch:normal;font-family:Montserrat;fill:currentColor;fill-opacity:1;stroke-width:0.264583"
           d="m 96.73713,88.409632 c 0.613832,0 1.02658,-0.402166 1.02658,-0.952497 0,-0.507998 -0.412748,-0.888997 -1.02658,-0.888997 -0.613831,0 -1.02658,0.402165 -1.02658,0.920747 0,0.518581 0.412749,0.920747 1.02658,0.920747 z m -0.825497,6.487563 h 1.650995 v -5.693816 h -1.650995 z" />
        <path
           id="path1095"
           style="font-style:normal;font-variant:normal;font-weight:bold;font-stretch:normal;font-family:Montserrat;fill:currentColor;fill-opacity:1;stroke-width:0.264583"
           d="m 102.3251,93.457866 c -0.17992,0.137583 -0.42333,0.211666 -0.66675,0.211666 -0.4445,0 -0.70908,-0.264583 -0.70908,-0.751414 v -2.317743 h 1.41816 v -1.269996 h -1.41816 v -1.386412 h -1.650996 v 1.386412 H 98.41986 v 1.269996 h 0.878414 v 2.338909 c 0,1.354662 0.783166,2.042577 2.127246,2.042577 0.508,0 1.00541,-0.116416 1.34408,-0.359832 z" />
        <path
           id="path1097"
           style="font-style:normal;font-variant:normal;font-weight:bold;font-stretch:normal;font-family:Montserrat;fill:currentColor;fill-opacity:1;stroke-width:0.264583"
           d="m 107.65907,89.203379 -1.60866,3.862905 -1.59808,-3.862905 h -1.70391 l 2.46591,5.736149 -0.0212,0.05292 c -0.22225,0.507999 -0.47624,0.709081 -0.93133,0.709081 -0.32808,0 -0.67733,-0.137583 -0.93133,-0.359832 l -0.60325,1.174746 c 0.37042,0.328083 1.00542,0.518582 1.5875,0.518582 1.02658,0 1.80974,-0.412749 2.36008,-1.788578 l 2.57174,-6.043064 z" />
      </g>
    </g>
  </g>
</svg>
