<?xml version="1.0" encoding="UTF-8" standalone="no"?>
<svg
   xmlns:dc="http://purl.org/dc/elements/1.1/"
   xmlns:cc="http://creativecommons.org/ns#"
   xmlns:rdf="http://www.w3.org/1999/02/22-rdf-syntax-ns#"
   xmlns:svg="http://www.w3.org/2000/svg"
   xmlns="http://www.w3.org/2000/svg"
   height="68.811996"
   width="48.218681"
   id="svg8"
   xml:space="preserve"
   enable-background="new 0 0 100 100"
   viewBox="0 0 48.218681 68.811996"
   y="0px"
   x="0px"
   version="1.1"><metadata
     id="metadata14"><rdf:RDF><cc:Work
         rdf:about=""><dc:format>image/svg+xml</dc:format><dc:type
           rdf:resource="http://purl.org/dc/dcmitype/StillImage" /><dc:title></dc:title></cc:Work></rdf:RDF></metadata><defs
     id="defs12" /><path
     id="path2"
     d="M 42.532682,29.524 V 6.76 c 0,-3.727 -3.033,-6.76 -6.76,-6.76 -3.727,0 -6.758,3.033 -6.758,6.76 v 17.252 l -10.101,-16.787 c -1.215,-2.021 -3.434,-3.274 -5.795,-3.274 -1.223,0 -2.428,0.335 -3.4789996,0.968 -1.547,0.93 -2.641,2.407 -3.076,4.16 -0.436,1.752 -0.162,3.568 0.768,5.116 l 5.9489996,9.885 c -1.092,0.063 -2.156,0.375 -3.1,0.942 -1.5489996,0.931 -2.6409996,2.408 -3.0759996,4.161 -0.217,0.871 -0.256,1.76 -0.129,2.623 -0.072,-0.004 -0.145,-0.016 -0.219,-0.016 -1.223,0 -2.426,0.336 -3.479,0.968 -1.547,0.932 -2.63899998,2.408 -3.07399998,4.16 -0.438,1.754 -0.164,3.57 0.768,5.117 l 2.54899998,4.236 c -0.006,0.061 -0.018,0.119 -0.018,0.182 0,12.33 10.0289996,22.359 22.3589996,22.359 12.328,0 22.357,-10.029 22.357,-22.359 v -8.305 c 10e-4,-3.862 -2.344,-7.184 -5.686,-8.624 z m -6.76,-25.907 c 1.734,0 3.145,1.409 3.145,3.143 v 22.006 c -0.029,0 -0.057,-0.004 -0.086,-0.004 h -6.201 V 6.76 c 0,-1.734 1.41,-3.143 3.142,-3.143 z m -25.699,6.334 c 0.203,-0.814 0.709,-1.501 1.43,-1.934 0.49,-0.295 1.049,-0.451 1.615,-0.451 1.115,0 2.123,0.569 2.697,1.523 l 11.838,19.672 h -0.049 c -2.002,0 -3.449,0 -4.656,0.703 -0.629,0.367 -1.057,0.857 -1.359,1.408 l -11.159,-18.541 c -0.4329996,-0.72 -0.5599996,-1.565 -0.357,-2.38 z m 0.541,20.104 c 0.203,-0.815 0.711,-1.502 1.43,-1.935 0.49,-0.295 1.049,-0.451 1.615,-0.451 1.115,0 2.123,0.569 2.697,1.523 l 5.107,8.483 c 0.893,1.484 0.412,3.42 -1.074,4.313 -0.488,0.295 -1.047,0.451 -1.613,0.451 -1.117,0 -2.125,-0.57 -2.699,-1.523 l -5.105,-8.481 c -0.434,-0.72 -0.561,-1.565 -0.358,-2.38 z m -6.9019996,7.737 c 0.203,-0.814 0.711,-1.502 1.432,-1.936 0.487,-0.293 1.046,-0.449 1.612,-0.449 1.115,0 2.125,0.568 2.699,1.523 l 5.1049996,8.482 c 0.432,0.719 0.559,1.563 0.357,2.377 -0.203,0.816 -0.711,1.502 -1.432,1.936 -0.488,0.297 -1.047,0.451 -1.613,0.451 0,0 0,0 -0.002,0 -1.113,0 -2.1229996,-0.568 -2.6969996,-1.523 l -5.105,-8.482 c -0.433,-0.719 -0.56,-1.563 -0.356,-2.379 z m 40.8919996,8.662 c 0,10.336 -8.408,18.744 -18.742,18.744 -8.146,0 -15.076,-5.232 -17.6539996,-12.506 1.08,0.697 2.3479996,1.102 3.6639996,1.102 0,0 0,0 0.002,0 1.223,0 2.428,-0.336 3.48,-0.971 1.547,-0.93 2.639,-2.408 3.072,-4.16 0.217,-0.871 0.258,-1.76 0.131,-2.621 0.072,0.002 0.145,0.014 0.217,0.014 0.002,0 0,0 0.002,0 1.223,0 2.426,-0.334 3.479,-0.969 1.271,-0.764 2.193,-1.887 2.73,-3.158 0.547,0.381 1.123,0.723 1.746,0.98 -1.654,1.707 -2.676,4.027 -2.676,6.586 0,0.998 0.809,1.809 1.807,1.809 0.998,0 1.809,-0.811 1.809,-1.809 0,-3.24 2.637,-5.877 5.877,-5.877 0.998,0 1.807,-0.809 1.807,-1.807 0,-0.998 -0.809,-1.809 -1.807,-1.809 h -3.246 c -3.182,0 -5.771,-2.59 -5.771,-5.773 0,-1.359 0.229,-1.633 0.229,-1.635 0.273,-0.218 1.76,-0.218 2.85,-0.218 h 11.223 c 3.184,0 5.773,2.589 5.773,5.772 v 8.306 z" /></svg>
