<?xml version="1.0" encoding="UTF-8" standalone="no"?>
<svg
   xmlns:dc="http://purl.org/dc/elements/1.1/"
   xmlns:cc="http://creativecommons.org/ns#"
   xmlns:rdf="http://www.w3.org/1999/02/22-rdf-syntax-ns#"
   xmlns:svg="http://www.w3.org/2000/svg"
   xmlns="http://www.w3.org/2000/svg"
   height="300"
   width="300"
   version="1.1"
   viewBox="0 0 300 300"
   data-name="Layer 1"
   id="Layer_1">
  <metadata
     id="metadata17">
    <rdf:RDF>
      <cc:Work
         rdf:about="">
        <dc:format>image/svg+xml</dc:format>
        <dc:type
           rdf:resource="http://purl.org/dc/dcmitype/StillImage" />
        <dc:title>DA_logomark_blue</dc:title>
      </cc:Work>
    </rdf:RDF>
  </metadata>
  <defs
     id="defs4">
    <style
       id="style2">.cls-1{fill:#c1cce2;}.cls-2{fill:#6b84b8;}.cls-3{fill:#09328b;}</style>
  </defs>
  <title
     id="title6">DA_logomark_blue</title>
  <g
     transform="translate(0.0288462,22.5)"
     id="g845">
    <path
       class="cls-1"
       d="m 149.13,221.43 c -22.35,19.07 -48,27.72 -60.08,27.72 a 17.43,17.43 0 0 1 -5.09,-0.64 8.5,8.5 0 0 1 -6.24,-6.37 6.39,6.39 0 0 1 4.91,-7.58 c 0.89,-0.19 1.77,-0.41 2.64,-0.64 a 19.48,19.48 0 0 0 3.15,1.69 35.17,35.17 0 0 0 13.48,2.33 66.36,66.36 0 0 0 15.1,-1.89 98.55,98.55 0 0 0 32.13,-14.62 z m -40.72,-32.53 0.89,-0.29 v 0 a 54.54,54.54 0 0 0 12.36,-5.8 l 0.17,-0.11 C 117.32,175.29 106.06,161.7 78.5,137.65 55.26,117.35 31.92,99.75 31.69,99.57 a 10.51,10.51 0 0 1 2.1,-18 C 33.55,81.14 33.33,80.71 33.11,80.28 33.05,80.17 33,80.06 32.94,79.96 L 32.4,78.88 32.29,78.66 C 31.84,77.73 31.4,76.81 30.99,75.88 21.64,70 15.13,62.2 12.24,55.42 A 6.36,6.36 0 0 0 6.38,51.53 6.45,6.45 0 0 0 4.75,51.74 6.44,6.44 0 0 0 0,58.64 c 0.13,1.21 3.47,29.67 20,50.58 l -3.49,1.3 A 6.4,6.4 0 0 0 15.52,122 c 0.73,0.45 66.07,39.77 92.89,66.9 z"
       id="path8" />
    <path
       class="cls-2"
       d="m 142.23,221 a 91.55,91.55 0 0 1 -26.15,11.07 62.46,62.46 0 0 1 -14.18,1.78 31.09,31.09 0 0 1 -11.88,-2 c -5.59,-2.38 -6.79,-6.23 -7,-8.31 a 6.39,6.39 0 0 1 5.67,-7 l 1.2,-0.14 a 33,33 0 0 0 6.58,4.76 43.88,43.88 0 0 0 21.44,5.24 61.69,61.69 0 0 0 24.32,-5.4 z M 126,180.33 v 0 a 23.81,23.81 0 0 0 6,-6.5 v 0 a 4.31,4.31 0 0 0 0.66,-1.82 c 0,-1.17 -1.13,-12.66 -40.12,-54.69 C 71.77,94.85 50.94,75.39 50.07,74.58 a 11.31,11.31 0 0 1 3.46,-18.77 c -1,-2.47 -1.85,-5 -2.59,-7.44 C 44.36,42.08 40.35,35.14 38.68,29.73 a 6.4,6.4 0 0 0 -7.06,-4.44 6.44,6.44 0 0 0 -5.41,6.36 c 0,1.23 0.37,29.87 14.66,52.41 L 37.26,85 A 6.41,6.41 0 0 0 35,96.3 c 0.23,0.17 23.79,18 47,38.27 27.6,24.08 39.22,37.97 44,45.76 z"
       id="path10" />
    <path
       class="cls-3"
       d="m 299.3,124.7 a 6.34,6.34 0 0 1 -7.66,3.18 28.35,28.35 0 0 0 -7.9,-1.72 3.64,3.64 0 0 0 -2.15,0.5 c -1.93,1.26 -4.17,5.63 -7,11.18 a 216.51,216.51 0 0 1 -17.37,29.24 c -10.59,14.93 -23.84,27.49 -36.65,39.64 -16.24,15.4 -31.58,29.95 -40.17,47.88 l -0.19,0.4 h -13.88 l 0.39,-1 c 9.17,-22.54 27.43,-39.85 45.09,-56.6 12.36,-11.73 25.15,-23.85 35,-37.77 A 206.94,206.94 0 0 0 263.24,132 c 4.87,-9.55 8.44,-16.55 16.5,-18.22 -1.43,-2.4 -4.74,-7.17 -8.86,-8 a 6.67,6.67 0 0 0 -1.27,-0.13 c -2.46,0 -5.25,1.39 -8.3,4.12 -8.44,7.56 -18.67,15.28 -30.57,15.28 a 26.2,26.2 0 0 1 -2.94,-0.16 C 217.73,123.8 208.45,117.21 199.43,104.73 175.62,71.81 142.05,64.89 115.07,59.32 H 115 c -3.69,-0.77 -7.17,-1.48 -10.55,-2.25 A 73,73 0 0 1 65.76,34.71 c 2,10.38 5.45,19.1 10.3,26 a 6.4,6.4 0 0 1 -4.29,10 h -0.13 c 8.72,8.45 21.35,21 33.91,34.54 44.84,48.35 44.84,62.2 44.84,66.75 0,8.89 -6.7,18.27 -18.39,25.74 a 72.21,72.21 0 0 1 -23.13,9.53 28.76,28.76 0 0 0 8.95,1.35 c 8.48,0 17.75,-3.12 27.52,-9.25 l 0.19,-0.11 c 7.75,-4.52 14.89,-6.81 21.22,-6.81 a 24.6,24.6 0 0 1 4.9,0.49 c 6.4,1.32 9.5,4.9 10.06,5.61 l 0.1,0.12 -10,7.92 c -0.51,-0.44 -1.91,-1.33 -4.88,-1.33 -2.97,0 -7.73,0.87 -14.86,5 -11.83,7.41 -23.31,11.16 -34.12,11.16 A 39.1,39.1 0 0 1 98.89,216.8 c -6.75,-3.76 -10.94,-9.23 -10.94,-14.28 a 6.39,6.39 0 0 1 6.37,-6.39 59,59 0 0 0 30.83,-9.13 c 7.58,-4.85 12.49,-10.72 12.49,-15 0,-4 -4,-17.73 -41.43,-58 -21,-22.61 -41.92,-42.17 -42.8,-43 a 6.4,6.4 0 0 1 3.42,-11 l 3.69,-0.54 C 48.64,35.49 51.29,7 51.4,5.77 A 6.42,6.42 0 0 1 57.45,0 h 0.3 A 6.4,6.4 0 0 1 64,5.16 c 4.46,22.72 28.3,36 43.23,39.4 3.3,0.75 6.75,1.46 10.4,2.21 27.6,5.7 65.4,13.49 92.11,50.43 6.69,9.25 13.22,14.28 19.42,15 a 13.82,13.82 0 0 0 1.58,0.09 c 6,0 12.77,-3.71 22.06,-12 5.48,-4.9 11.1,-7.38 16.7,-7.38 a 19.75,19.75 0 0 1 4,0.41 c 2.87,0.6 12.72,3.65 19.14,17.65 a 17.49,17.49 0 0 0 4.74,5.73 6.38,6.38 0 0 1 1.92,8 z"
       id="path12" />
  </g>
</svg>
