<?xml version="1.0" encoding="UTF-8" standalone="no"?>
<svg
   xmlns:dc="http://purl.org/dc/elements/1.1/"
   xmlns:cc="http://creativecommons.org/ns#"
   xmlns:rdf="http://www.w3.org/1999/02/22-rdf-syntax-ns#"
   xmlns:svg="http://www.w3.org/2000/svg"
   xmlns="http://www.w3.org/2000/svg"
   width="44.017761mm"
   height="44.017761mm"
   viewBox="0 0 44.017762 44.017761"
   version="1.1"
   id="svg2514">
  <defs
     id="defs2508" />
  <metadata
     id="metadata2511">
    <rdf:RDF>
      <cc:Work
         rdf:about="">
        <dc:format>image/svg+xml</dc:format>
        <dc:type
           rdf:resource="http://purl.org/dc/dcmitype/StillImage" />
        <dc:title></dc:title>
      </cc:Work>
    </rdf:RDF>
  </metadata>
  <g
     transform="translate(0,9.2342316)"
     id="g1288">
    <path
       style="color:#000000;font-style:normal;font-variant:normal;font-weight:normal;font-stretch:normal;font-size:medium;line-height:normal;font-family:sans-serif;-inkscape-font-specification:Montserrat;font-variant-ligatures:normal;font-variant-position:normal;font-variant-caps:normal;font-variant-numeric:normal;font-variant-alternates:normal;font-variant-east-asian:normal;font-feature-settings:normal;font-variation-settings:normal;text-indent:0;text-align:start;text-decoration:none;text-decoration-line:none;text-decoration-style:solid;text-decoration-color:#000000;letter-spacing:normal;word-spacing:normal;text-transform:none;writing-mode:lr-tb;direction:ltr;text-orientation:mixed;dominant-baseline:auto;baseline-shift:baseline;text-anchor:start;white-space:normal;shape-padding:0;shape-margin:0;inline-size:0;clip-rule:nonzero;display:inline;overflow:visible;visibility:visible;isolation:auto;mix-blend-mode:normal;color-interpolation:sRGB;color-interpolation-filters:linearRGB;solid-color:#000000;solid-opacity:1;vector-effect:none;fill:#003333;fill-opacity:1;fill-rule:nonzero;stroke:none;stroke-width:1.5;stroke-linecap:butt;stroke-linejoin:miter;stroke-miterlimit:4;stroke-dasharray:none;stroke-dashoffset:0;stroke-opacity:1;color-rendering:auto;image-rendering:auto;shape-rendering:auto;text-rendering:auto;enable-background:accumulate;stop-color:#000000"
       d="M 3.9861041,3.805106 C 3.1391488,3.9203048 2.4380548,4.3752248 1.8904007,4.8695595 1.3427473,5.3638941 0.94864027,5.8838227 0.73219788,6.3812783 0.09986015,7.8345955 0.29250985,9.0390156 0.67360363,9.9769811 1.0546981,10.914947 1.517546,11.635592 1.6521195,12.654716 1.7176875,13.15126 1.5503694,13.812494 1.2732132,14.486747 0.99605709,15.161 0.63034054,15.819864 0.40211949,16.443778 c -0.57715661,1.577844 -0.53708521,3.064418 0.14648441,4.212891 0.6835694,1.148473 1.9533906,1.86796 3.5234379,2.105469 L 4.2966511,21.277763 C 1.5250305,20.685002 1.0194942,18.769497 1.4022269,17.156528 1.8712347,15.265847 3.0152397,13.792154 2.8483238,12.319221 2.6687718,10.95947 2.2340137,10.274376 1.9251617,9.5142165 1.6163109,8.754057 1.2930098,7.9502843 1.7834528,6.8230865 2.3324168,5.8622813 3.0841888,5.4401348 4.1892291,5.2914351 Z"
       id="path872" />
    <path
       id="path1578"
       style="color:#000000;font-style:normal;font-variant:normal;font-weight:normal;font-stretch:normal;font-size:medium;line-height:normal;font-family:sans-serif;-inkscape-font-specification:Montserrat;font-variant-ligatures:normal;font-variant-position:normal;font-variant-caps:normal;font-variant-numeric:normal;font-variant-alternates:normal;font-variant-east-asian:normal;font-feature-settings:normal;font-variation-settings:normal;text-indent:0;text-align:start;text-decoration:none;text-decoration-line:none;text-decoration-style:solid;text-decoration-color:#000000;letter-spacing:normal;word-spacing:normal;text-transform:none;writing-mode:lr-tb;direction:ltr;text-orientation:mixed;dominant-baseline:auto;baseline-shift:baseline;text-anchor:start;white-space:normal;shape-padding:0;shape-margin:0;inline-size:0;clip-rule:nonzero;display:inline;overflow:visible;visibility:visible;isolation:auto;mix-blend-mode:normal;color-interpolation:sRGB;color-interpolation-filters:linearRGB;solid-color:#000000;solid-opacity:1;vector-effect:none;fill:#003333;fill-opacity:1;fill-rule:nonzero;stroke:none;stroke-width:0.277001;stroke-linecap:round;stroke-linejoin:bevel;stroke-miterlimit:4;stroke-dasharray:none;stroke-dashoffset:0;stroke-opacity:1;color-rendering:auto;image-rendering:auto;shape-rendering:auto;text-rendering:auto;enable-background:accumulate;stop-color:#000000"
       d="M 24.027949,0.55504269 C 17.787542,0.55776956 11.53879,1.0708238 5.3500195,2.1859503 l -0.091467,0.062524 -0.2640665,0.4103102 -0.019121,0.093536 0.6754109,4.6074704 -0.2382282,0.318325 -0.027388,0.095602 0.465088,5.5335111 -0.4159953,4.93355 0.027388,0.09353 0.2852539,0.380857 0.028939,0.01757 -0.6795453,4.62711 0.021704,0.0956 0.2656168,0.406178 0.0894,0.06252 c 12.3245752,2.220711 24.8841532,2.048584 37.1507032,0.19327 l 0.09354,-0.0584 0.273368,-0.400492 0.02376,-0.09353 -0.360705,-2.957444 c -0.268506,0.230087 -0.551132,0.443735 -0.846976,0.639239 l 0.238747,1.950783 C 30.148601,24.955773 17.998471,25.108736 6.0750249,23.017755 l 0.6113323,-4.164086 c 0.06008,0.0057 0.119817,0.01169 0.1793171,0.01757 0.7325111,0.07221 1.4662081,0.140687 2.1993489,0.203605 0.3202162,0.02765 0.6404218,0.05362 0.9611818,0.07958 0.265364,0.0213 0.531427,0.04245 0.796851,0.06253 0.568541,0.04346 1.136006,0.08349 1.704806,0.121441 0.06761,0.0045 0.136134,0.011 0.205155,0.01551 2.285786,0.149844 4.574121,0.255588 6.863147,0.314192 0.0026,6.6e-5 0.0052,-6.6e-5 0.0077,0 2.94393,0.123257 5.896709,0.120513 8.848039,0.0041 0.0021,-4.9e-5 0.0037,4.7e-5 0.0057,0 0.0026,-6.4e-5 0.0052,6.3e-5 0.0077,0 h 0.0021 c 0.768123,-0.01871 1.536034,-0.04465 2.303735,-0.0739 -0.249179,-0.303793 -0.477125,-0.625981 -0.680579,-0.964801 -4.230347,0.142256 -8.46509,0.136128 -12.69535,-0.02583 -0.743469,-0.02847 -1.487177,-0.0618 -2.230355,-0.09973 -0.0109,-5.29e-4 -0.0062,-1.85e-4 -0.0041,0 h -0.002 c -1.4293,-0.07301 -2.859288,-0.165195 -4.287077,-0.27337 -0.145262,-0.01103 -0.289345,-0.02159 -0.435632,-0.03307 -0.5411724,-0.04235 -1.0837251,-0.0874 -1.6246541,-0.134845 -0.176358,-0.01551 -0.3521113,-0.03057 -0.5276594,-0.04652 -0.6353991,-0.05768 -1.2696175,-0.11942 -1.9042764,-0.183967 l 0.2831867,-3.36517 c 2.847014,-0.293782 5.6989292,-0.519205 8.5550342,-0.66766 2.205822,-0.114649 4.414573,-0.186116 6.622852,-0.214974 0.736084,-0.0096 1.470874,-0.01538 2.207101,-0.01551 1.365311,-2.06e-4 2.730876,0.01809 4.096388,0.05064 -0.03529,-0.0765 -0.06718,-0.15439 -0.09663,-0.233061 -0.116789,-0.240541 -0.205912,-0.492681 -0.267683,-0.751377 -1.244027,-0.02678 -2.48816,-0.04308 -3.732073,-0.04289 -2.959328,5.29e-4 -5.917582,0.07684 -8.873362,0.230478 -2.803757,0.145735 -5.603875,0.371113 -8.3984539,0.656291 L 6.7566916,13.262281 6.3892721,8.8966572 C 12.206776,7.8424428 18.108124,7.3566045 24.030056,7.3577339 c 2.103813,5.296e-4 4.20986,0.06643 6.315376,0.1860341 0.147225,-0.2188656 0.319294,-0.4217983 0.507982,-0.6102988 L 30.637406,6.5738032 C 28.435254,6.4430058 26.231733,6.3736985 24.030056,6.3732965 18.203547,6.3722383 12.393183,6.8514459 6.6569561,7.8636464 L 5.9557068,3.103729 C 11.942662,2.0535424 17.984819,1.5480187 24.025923,1.5451687 h 0.0041 c 1.983276,-0.00106 3.965884,0.055857 5.945891,0.1586475 C 30.143633,1.3515127 30.368613,1.0297897 30.63689,0.7478024 28.436557,0.6237633 26.232885,0.55408213 24.02799,0.55504797 Z" />
    <path
       id="path959"
       d="M 42.27919,9.0272971 V 2.0669454 C 42.27919,0.92737286 41.351817,0 40.212243,0 39.07267,0 38.145908,0.92737286 38.145908,2.0669454 v 5.2749947 l -3.088495,-5.132814 c -0.3715,-0.6179437 -1.049986,-1.0010634 -1.771888,-1.0010634 -0.373946,0 -0.742388,0.1024282 -1.063743,0.2959769 -0.473013,0.2843588 -0.807515,0.7359678 -0.940522,1.2719664 -0.133312,0.5356951 -0.04953,1.0909569 0.234825,1.5642753 l 1.818974,3.0224516 c -0.333892,0.019264 -0.659222,0.1146631 -0.94786,0.2880268 -0.473625,0.2846649 -0.807517,0.7362748 -0.940522,1.2722725 -0.06634,0.2663192 -0.07828,0.5381396 -0.03945,0.8020126 -0.02203,-0.00141 -0.04433,-0.00484 -0.06695,-0.00484 -0.373948,0 -0.741777,0.1027317 -1.063745,0.2959762 -0.473013,0.284971 -0.806904,0.736274 -0.93991,1.271969 -0.133923,0.536304 -0.05015,1.091566 0.234825,1.564579 l 0.779385,1.295204 c -0.0018,0.01864 -0.0055,0.0364 -0.0055,0.05564 0,3.770035 3.06648,6.836514 6.836518,6.836514 3.769426,0 6.835908,-3.066479 6.835908,-6.836514 v -2.539345 c 2.64e-4,-1.180851 -0.716747,-2.19659 -1.738601,-2.6368869 z M 40.212243,1.1059379 c 0.53019,0 0.96162,0.4308189 0.96162,0.9610075 V 8.79553 c -0.0089,0 -0.01742,-0.00141 -0.02629,-0.00141 H 39.251539 V 2.0667624 c 0,-0.5301904 0.431124,-0.9610066 0.960702,-0.9610066 z m -7.857761,1.9366934 c 0.06207,-0.248891 0.216785,-0.4589478 0.437237,-0.5913417 0.149825,-0.090199 0.320745,-0.1379004 0.493806,-0.1379004 0.340924,0 0.649132,0.1739786 0.824639,0.4656744 l 3.619603,6.0149376 h -0.01498 c -0.612135,0 -1.054571,0 -1.423626,0.2149511 C 36.09884,9.121163 35.967973,9.2709895 35.875633,9.4394642 L 32.463639,3.7703429 C 32.331246,3.5501948 32.292414,3.2918258 32.354479,3.0426313 Z M 32.5199,9.1896575 c 0.06207,-0.2491944 0.217395,-0.4592539 0.437237,-0.5916487 0.149824,-0.090199 0.320745,-0.1378977 0.493805,-0.1378977 0.340923,0 0.649132,0.1739768 0.824638,0.4656744 l 1.561524,2.5937735 c 0.273044,0.453749 0.125974,1.045702 -0.328389,1.318749 -0.149211,0.09019 -0.320131,0.137898 -0.493192,0.137898 -0.341535,0 -0.649743,-0.174283 -0.82525,-0.465675 L 32.629362,9.9173691 C 32.49666,9.6972202 32.45783,9.4388511 32.5199,9.1896575 Z m -2.110365,2.3656745 c 0.06207,-0.248889 0.217395,-0.459253 0.437848,-0.591953 0.148907,-0.08958 0.319828,-0.137287 0.492889,-0.137287 0.340924,0 0.649742,0.173671 0.82525,0.465674 l 1.560911,2.593468 c 0.13209,0.219843 0.170921,0.477904 0.109161,0.726795 -0.06206,0.249501 -0.217395,0.459253 -0.43785,0.591955 -0.14921,0.09081 -0.320131,0.137897 -0.493194,0.137897 0,0 0,0 -6.11e-4,0 -0.340313,0 -0.64913,-0.173673 -0.824638,-0.465675 l -1.560912,-2.593467 c -0.132394,-0.219842 -0.171226,-0.477906 -0.108848,-0.727407 z m 12.503193,2.648505 c 0,3.160349 -2.570842,5.731192 -5.73058,5.731192 -2.490731,0 -4.609658,-1.599743 -5.397912,-3.823851 0.330223,0.213116 0.717929,0.336948 1.12031,0.336948 0,0 0,0 6.12e-4,0 0.373946,0 0.742389,-0.102731 1.06405,-0.296896 0.473013,-0.284356 0.806904,-0.736271 0.939299,-1.271965 0.06634,-0.266319 0.07888,-0.53814 0.04006,-0.801401 0.02202,6.12e-4 0.04433,0.0043 0.06634,0.0043 6.12e-4,0 0,0 6.12e-4,0 0.373945,0 0.741778,-0.102124 1.063743,-0.296283 0.388623,-0.233597 0.670535,-0.576967 0.834729,-0.965588 0.167251,0.116495 0.343369,0.221064 0.533859,0.299646 -0.505728,0.521935 -0.818219,1.2313 -0.818219,2.013744 0,0.30515 0.247362,0.553123 0.552512,0.553123 0.30515,0 0.553123,-0.247973 0.553123,-0.553123 0,-0.990668 0.806293,-1.79696 1.796958,-1.79696 0.30515,0 0.552511,-0.24736 0.552511,-0.55251 0,-0.305148 -0.247361,-0.553123 -0.552511,-0.553123 h -0.992502 c -0.972931,0 -1.764548,-0.791921 -1.764548,-1.765161 0,-0.41553 0.07002,-0.4993068 0.07002,-0.4999191 0.08349,-0.066659 0.538139,-0.066659 0.87142,-0.066659 h 3.43156 c 0.973544,0 1.76516,0.7916161 1.76516,1.7648561 v 2.539681 z"
       style="font-style:normal;font-variant:normal;font-weight:normal;font-stretch:normal;font-size:10.5833px;line-height:1;font-family:Montserrat;-inkscape-font-specification:Montserrat;letter-spacing:0px;word-spacing:0px;white-space:pre;inline-size:96.8812;fill:#ff6600;fill-opacity:1;stroke:none;stroke-width:0.305762" />
  </g>
</svg>
